<?xml version="1.0" encoding="UTF-8"?>
<svg width="174px" height="37px" viewBox="0 0 174 37" version="1.1" xmlns="http://www.w3.org/2000/svg" xmlns:xlink="http://www.w3.org/1999/xlink">
    <title>Group 4</title>
    <g id="Symbols" stroke="none" stroke-width="1" fill="none" fill-rule="evenodd">
        <g id="Group-4" transform="translate(3.000000, 3.000000)">
            <g id="logo_text" transform="translate(27.000000, 7.000000)" fill="#FFFFFF" fill-rule="nonzero">
                <path d="M7.00291206,13.4489796 C4.69656377,13.4489796 3.01921957,12.3061224 3.01921957,9.14285714 L3.01921957,6.97959184 C3.01921957,3.97959184 4.59172976,2.55102041 7.06581246,2.55102041 C8.72218987,2.55102041 9.24635993,3.06122449 9.8543972,3.16326531 C9.93826441,3.18367347 10.0430984,3.20408163 10.1269656,3.20408163 C10.8188701,3.20408163 11.364007,2.63265306 11.364007,1.95918367 C11.364007,1.40816327 10.9656377,1 10.3995341,0.693877551 C9.39312755,0.183673469 7.82061736,0 6.73034362,0 C2.89341875,0 0,2.48979592 0,7.12244898 L0,9 C0,13.6326531 2.85148515,16 6.75131043,16 C8.07221899,16 9.72859639,15.755102 10.6301689,15.1632653 C11.049505,14.8979592 11.3220734,14.5306122 11.3220734,14.0612245 C11.3220734,13.3877551 10.8188701,12.8367347 10.1059988,12.8367347 C9.91729761,12.8367347 9.72859639,12.8979592 9.51892836,12.9591837 C8.95282469,13.122449 8.28188701,13.4489796 7.00291206,13.4489796 Z" id="Path"></path>
                <path d="M19.9184624,13.4489796 C17.6121142,13.4489796 15.9347699,12.3061224 15.9347699,9.14285714 L15.9347699,6.97959184 C15.9347699,3.97959184 17.5072801,2.55102041 19.9813628,2.55102041 C21.6377402,2.55102041 22.1619103,3.06122449 22.7699476,3.16326531 C22.8538148,3.18367347 22.9586488,3.20408163 23.042516,3.20408163 C23.7344205,3.20408163 24.2795574,2.63265306 24.2795574,1.95918367 C24.2795574,1.40816327 23.8811881,1 23.3150844,0.693877551 C22.3086779,0.183673469 20.7361677,0 19.645894,0 C15.8089691,0 12.9155504,2.48979592 12.9155504,7.12244898 L12.9155504,9 C12.9155504,13.6326531 15.7670355,16 19.6668608,16 C20.9877694,16 22.6441468,15.755102 23.5457193,15.1632653 C23.9650553,14.8979592 24.2376238,14.5306122 24.2376238,14.0612245 C24.2376238,13.3877551 23.7344205,12.8367347 23.0215492,12.8367347 C22.832848,12.8367347 22.6441468,12.8979592 22.4344787,12.9591837 C21.8683751,13.122449 21.1974374,13.4489796 19.9184624,13.4489796 Z" id="Path"></path>
                <path d="M32.8340128,13.4489796 C30.5276645,13.4489796 28.8503203,12.3061224 28.8503203,9.14285714 L28.8503203,6.97959184 C28.8503203,3.97959184 30.4228305,2.55102041 32.8969132,2.55102041 C34.5532906,2.55102041 35.0774607,3.06122449 35.685498,3.16326531 C35.7693652,3.18367347 35.8741992,3.20408163 35.9580664,3.20408163 C36.6499709,3.20408163 37.1951077,2.63265306 37.1951077,1.95918367 C37.1951077,1.40816327 36.7967385,1 36.2306348,0.693877551 C35.2242283,0.183673469 33.6517181,0 32.5614444,0 C28.7245195,0 25.8311008,2.48979592 25.8311008,7.12244898 L25.8311008,9 C25.8311008,13.6326531 28.6825859,16 32.5824112,16 C33.9033197,16 35.5596971,15.755102 36.4612697,15.1632653 C36.8806057,14.8979592 37.1531741,14.5306122 37.1531741,14.0612245 C37.1531741,13.3877551 36.6499709,12.8367347 35.9370996,12.8367347 C35.7483984,12.8367347 35.5596971,12.8979592 35.3500291,12.9591837 C34.7839255,13.122449 34.1129878,13.4489796 32.8340128,13.4489796 Z" id="Path"></path>
                <path d="M48.3494467,14.8571429 C48.5381479,15.4897959 49.1461852,15.9591837 49.8590565,15.9591837 C50.7396622,15.9591837 51.4315667,15.2653061 51.4315667,14.4285714 C51.4315667,14.2653061 51.4105999,14.122449 51.3057659,13.7959184 L46.9446709,1.7755102 C46.6092021,0.816326531 46.1479324,0.0408163265 44.8479907,0.0408163265 C43.6319161,0.0408163265 43.1496797,0.795918367 42.7513104,1.81632653 L38.012813,13.9591837 C37.9289458,14.1632653 37.8870122,14.3673469 37.8870122,14.5714286 C37.8870122,15.3265306 38.5369831,15.9591837 39.3127548,15.9591837 C39.9836925,15.9591837 40.4659289,15.5714286 40.675597,14.9591837 L41.5981363,12.3877551 L47.5527082,12.3877551 L48.3494467,14.8571429 Z M44.7012231,3.65306122 L46.7979033,10.0612245 L42.4158416,10.0612245 L44.7012231,3.65306122 Z" id="Shape"></path>
                <path d="M55.1426907,0 C54.1153174,0 53.6121142,0.734693878 53.6121142,1.44897959 L53.6121142,14.4897959 C53.6121142,15.3061224 54.157251,15.9387755 54.9959231,15.9387755 C55.8136284,15.9387755 56.4216657,15.3061224 56.4216657,14.4897959 L56.4216657,9.83673469 L56.3797321,5.57142857 L59.14735,10.7755102 C59.5666861,11.6530612 59.9231217,12.0612245 60.8246942,12.0612245 C61.7262667,12.0612245 62.1036692,11.6122449 62.5649388,10.7346939 L65.3744904,5.40816327 L65.3535236,9.85714286 L65.3535236,14.4897959 C65.3535236,15.3061224 65.8986605,15.9387755 66.7373326,15.9387755 C67.5550379,15.9387755 68.1630751,15.3061224 68.1630751,14.4897959 L68.1630751,1.44897959 C68.1630751,0.755102041 67.6598719,0 66.6324985,0 C65.83576,0 65.2906232,0.326530612 64.9341875,1.04081633 L60.8875946,8.71428571 L56.8619685,1.04081633 C56.4845661,0.326530612 55.9394292,0 55.1426907,0 Z" id="Path"></path>
                <path d="M71.6016308,14.244898 C71.6016308,15.0408163 72.2516016,15.6938776 73.0902737,15.6938776 L77.8497379,15.6938776 C81.8543972,15.6938776 83.2382062,13.6530612 83.2382062,11.3061224 C83.2382062,9.32653061 82.2317997,8.10204082 80.6173559,7.6122449 C82.0640652,6.95918367 82.8188701,5.93877551 82.8188701,4.32653061 C82.8188701,1.81632653 81.1624927,0.285714286 77.5562027,0.285714286 L73.0902737,0.285714286 C72.2516016,0.285714286 71.6016308,0.93877551 71.6016308,1.73469388 L71.6016308,14.244898 Z M77.4933023,9.04081633 C79.4222481,9.04081633 80.177053,9.69387755 80.177053,11.2244898 C80.177053,12.6938776 79.1077461,13.244898 77.4304019,13.244898 L74.5160163,13.244898 L74.5160163,9.04081633 L77.4933023,9.04081633 Z M77.199767,2.71428571 C78.7303436,2.71428571 79.7786838,3.2244898 79.7786838,4.75510204 C79.7786838,5.95918367 79.2545137,6.71428571 77.3675015,6.71428571 L74.5160163,6.71428571 L74.5160163,2.71428571 L77.199767,2.71428571 Z" id="Shape"></path>
                <path d="M85.3558532,9.08163265 C85.3558532,13.7142857 87.9767036,16 91.855562,16 C95.7344205,16 98.3972044,13.7142857 98.3972044,9.08163265 L98.3972044,7.04081633 C98.3972044,2.40816327 95.7344205,0 91.855562,0 C87.9767036,0 85.3558532,2.40816327 85.3558532,7.04081633 L85.3558532,9.08163265 Z M88.354106,6.89795918 C88.354106,4.12244898 89.5072801,2.44897959 91.855562,2.44897959 C94.3296447,2.44897959 95.3989517,4.12244898 95.3989517,6.89795918 L95.3989517,9.2244898 C95.3989517,11.9387755 94.3925451,13.5510204 91.855562,13.5510204 C89.3395457,13.5510204 88.354106,11.9387755 88.354106,9.2244898 L88.354106,6.89795918 Z" id="Shape"></path>
                <path d="M100.703553,2.24489796 L104.435644,7.87755102 L100.32615,13.7959184 C99.718113,14.7142857 99.9906814,15.9387755 101.437391,15.9387755 C101.982528,15.9387755 102.401864,15.5918367 102.674432,15.1428571 L106.154921,9.7755102 L109.551543,15.1836735 C109.782178,15.6326531 110.243448,15.9387755 110.809552,15.9387755 C111.564356,15.9387755 112.193361,15.3265306 112.193361,14.5918367 C112.193361,14.3469388 112.109493,14.1020408 111.962726,13.8571429 L107.916133,7.75510204 L111.794991,2.06122449 C112.382062,1.16326531 111.899825,0 110.662784,0 C110.138614,0 109.719278,0.306122449 109.467676,0.734693878 L106.238789,5.87755102 L102.967967,0.653061224 C102.737333,0.244897959 102.276063,0 101.793826,0 C101.018055,0 100.389051,0.612244898 100.389051,1.36734694 C100.389051,1.69387755 100.535818,1.97959184 100.703553,2.24489796 Z" id="Path"></path>
                <path d="M129.008736,2.7755102 C129.700641,2.7755102 130.266744,2.20408163 130.266744,1.53061224 C130.266744,0.857142857 129.700641,0.285714286 129.008736,0.285714286 L118.923704,0.285714286 C118.210833,0.285714286 117.644729,0.857142857 117.644729,1.53061224 C117.644729,2.20408163 118.210833,2.7755102 118.923704,2.7755102 L122.509027,2.7755102 L122.509027,14.4897959 C122.509027,15.2857143 123.179965,15.9387755 123.99767,15.9387755 C124.836342,15.9387755 125.486313,15.2857143 125.486313,14.4897959 L125.486313,2.7755102 L129.008736,2.7755102 Z" id="Path"></path>
                <path d="M137.290623,15.9387755 C138.590565,15.9387755 139.009901,15.244898 139.366337,14.2857143 L143.874199,1.97959184 C143.9371,1.79591837 144,1.59183673 144,1.36734694 C144,0.571428571 143.391963,0 142.553291,0 C141.819453,0 141.295282,0.408163265 141.106581,1 L137.437391,12.0408163 L134.040769,1.08163265 C133.852068,0.469387755 133.24403,0 132.531159,0 C131.650553,0 130.958649,0.673469388 130.958649,1.53061224 C130.958649,1.71428571 130.979616,1.85714286 131.08445,2.16326531 L135.27781,14.3061224 C135.634246,15.3469388 135.990681,15.9387755 137.290623,15.9387755 Z" id="Path"></path>
            </g>
            <g id="logo_icon">
                <path d="M17.0884267,0 C7.65074922,0 0,6.93958638 0,15.5 C0,24.0604136 7.65074922,31 17.0884267,31" id="Path" stroke="#FFFFFF" stroke-width="4.34801727" stroke-linecap="round"></path>
                <path d="M13.680047,9.5930193 C12.3545715,8.76245974 11.2800614,9.36690324 11.2800614,10.9210986 L11.2800614,19.9449393 C11.2800614,21.5089768 12.3616377,22.0991504 13.680047,21.2730186 L20.6000144,16.9368801 C21.9254898,16.1063205 21.9184236,14.7552896 20.6000144,13.9291578 L13.680047,9.5930193 Z" id="Mask" fill="#FFFFFF"></path>
            </g>
        </g>
    </g>
</svg>